<svg width="554" height="162" xmlns="http://www.w3.org/2000/svg" xmlns:xlink="http://www.w3.org/1999/xlink" overflow="hidden"><defs><clipPath id="clip0"><path d="M251 322 805 322 805 484 251 484Z" fill-rule="evenodd" clip-rule="evenodd"/></clipPath></defs><g clip-path="url(#clip0)" transform="translate(-251 -322)"><path d="M364.5 403.5C364.5 400.739 366.515 398.5 369 398.5 371.485 398.5 373.5 400.739 373.5 403.5 373.5 406.261 371.485 408.5 369 408.5 366.515 408.5 364.5 406.261 364.5 403.5Z" stroke="#000000" stroke-width="1.33333" stroke-miterlimit="8" fill="none" fill-rule="evenodd"/><path d="M302.5 388C302.5 385.515 304.515 383.5 307 383.5 309.485 383.5 311.5 385.515 311.5 388 311.5 390.485 309.485 392.5 307 392.5 304.515 392.5 302.5 390.485 302.5 388Z" stroke="#000000" stroke-width="1.33333" stroke-miterlimit="8" fill="none" fill-rule="evenodd"/><path d="M0 0 79.5028 0.122205" stroke="#000000" stroke-width="0.666667" stroke-miterlimit="8" fill="none" fill-rule="evenodd" transform="matrix(-1 -8.74228e-08 -8.74228e-08 1 453.003 403.5)"/><path d="M364.016 403.129 311.5 387.5" stroke="#000000" stroke-width="0.666667" stroke-miterlimit="8" fill="none" fill-rule="evenodd"/><text font-family="Arial,Arial_MSFontService,sans-serif" font-weight="400" font-size="16" transform="translate(286.248 424)">countriesAndTerritories<tspan x="-24.7437" y="-51">continentExp</tspan></text><path d="M647.5 403.5C647.5 400.739 649.739 398.5 652.5 398.5 655.261 398.5 657.5 400.739 657.5 403.5 657.5 406.261 655.261 408.5 652.5 408.5 649.739 408.5 647.5 406.261 647.5 403.5Z" stroke="#000000" stroke-width="1.33333" stroke-miterlimit="8" fill="none" fill-rule="evenodd"/><path d="M774.5 403.5C774.5 400.739 776.515 398.5 779 398.5 781.485 398.5 783.5 400.739 783.5 403.5 783.5 406.261 781.485 408.5 779 408.5 776.515 408.5 774.5 406.261 774.5 403.5Z" stroke="#000000" stroke-width="1.33333" stroke-miterlimit="8" fill="none" fill-rule="evenodd"/><path d="M720.5 403.5C720.5 400.739 722.515 398.5 725 398.5 727.485 398.5 729.5 400.739 729.5 403.5 729.5 406.261 727.485 408.5 725 408.5 722.515 408.5 720.5 406.261 720.5 403.5Z" stroke="#000000" stroke-width="1.33333" stroke-miterlimit="8" fill="none" fill-rule="evenodd"/><path d="M612.5 403.5 647.951 403.654" stroke="#000000" stroke-width="0.666667" stroke-miterlimit="8" fill="none" fill-rule="evenodd"/><path d="M657.5 403.5 720.024 403.5" stroke="#000000" stroke-width="0.666667" stroke-miterlimit="8" fill="none" fill-rule="evenodd"/><text font-family="Arial,Arial_MSFontService,sans-serif" font-weight="400" font-size="16" transform="translate(621.653 425)">dateRep<tspan x="80.2356" y="0">month</tspan><tspan x="141.542" y="0">year</tspan></text><path d="M453.5 350.001C453.5 335.365 465.365 323.5 480.001 323.5L585.999 323.5C600.635 323.5 612.5 335.365 612.5 350.001L612.5 456.999C612.5 471.635 600.635 483.5 585.999 483.5L480.001 483.5C465.365 483.5 453.5 471.635 453.5 456.999Z" stroke="#000000" stroke-linejoin="round" stroke-miterlimit="10" fill="#FFFFFF" fill-rule="evenodd"/><text font-family="Arial,Arial_MSFontService,sans-serif" font-weight="400" font-size="16" transform="translate(470.333 371)">Cases<tspan x="0" y="19">Cases100K</tspan><tspan x="0" y="38">Cases1M</tspan><tspan x="0" y="57">Deaths</tspan><tspan x="0" y="76">Deaths100K</tspan><tspan x="0" y="96">Deaths1M</tspan></text><path d="M453.5 352.5 612.505 352.5" stroke="#000000" stroke-width="0.666667" stroke-miterlimit="8" fill="#FFFFFF" fill-rule="evenodd"/><text font-family="Arial,Arial_MSFontService,sans-serif" font-weight="700" font-size="16" transform="translate(497.488 344)">COVID<tspan x="50.6667" y="0">-</tspan><tspan x="56" y="0">19</tspan></text><path d="M729.5 403.5 774.097 403.5" stroke="#000000" stroke-width="0.666667" stroke-miterlimit="8" fill="none" fill-rule="evenodd"/></g></svg>