<svg width="468" height="92" xmlns="http://www.w3.org/2000/svg" xmlns:xlink="http://www.w3.org/1999/xlink" overflow="hidden"><defs><clipPath id="clip0"><path d="M281 392 749 392 749 484 281 484Z" fill-rule="evenodd" clip-rule="evenodd"/></clipPath></defs><g clip-path="url(#clip0)" transform="translate(-281 -392)"><path d="M412.5 440C412.5 437.515 414.739 435.5 417.5 435.5 420.261 435.5 422.5 437.515 422.5 440 422.5 442.485 420.261 444.5 417.5 444.5 414.739 444.5 412.5 442.485 412.5 440Z" stroke="#000000" stroke-width="1.33333" stroke-miterlimit="8" fill="none" fill-rule="evenodd"/><path d="M353.5 440C353.5 437.515 355.515 435.5 358 435.5 360.485 435.5 362.5 437.515 362.5 440 362.5 442.485 360.485 444.5 358 444.5 355.515 444.5 353.5 442.485 353.5 440Z" stroke="#000000" stroke-width="1.33333" stroke-miterlimit="8" fill="none" fill-rule="evenodd"/><path d="M453.786 439.585 422.5 439.5" stroke="#000000" stroke-width="0.666667" stroke-miterlimit="8" fill="none" fill-rule="evenodd"/><path d="M0 0 49.9012 0.000104987" stroke="#000000" stroke-width="0.666667" stroke-miterlimit="8" fill="none" fill-rule="evenodd" transform="matrix(-1 -8.74228e-08 -8.74228e-08 1 412.401 439.5)"/><text font-family="Arial,Arial_MSFontService,sans-serif" font-weight="400" font-size="16" transform="translate(390.025 463)">geoId<tspan x="-99.0565" y="0">continentExp</tspan></text><path d="M592.5 440C592.5 437.515 594.515 435.5 597 435.5 599.485 435.5 601.5 437.515 601.5 440 601.5 442.485 599.485 444.5 597 444.5 594.515 444.5 592.5 442.485 592.5 440Z" stroke="#000000" stroke-width="1.33333" stroke-miterlimit="8" fill="none" fill-rule="evenodd"/><path d="M718.5 440C718.5 437.515 720.515 435.5 723 435.5 725.485 435.5 727.5 437.515 727.5 440 727.5 442.485 725.485 444.5 723 444.5 720.515 444.5 718.5 442.485 718.5 440Z" stroke="#000000" stroke-width="1.33333" stroke-miterlimit="8" fill="none" fill-rule="evenodd"/><path d="M664.5 440C664.5 437.515 666.515 435.5 669 435.5 671.485 435.5 673.5 437.515 673.5 440 673.5 442.485 671.485 444.5 669 444.5 666.515 444.5 664.5 442.485 664.5 440Z" stroke="#000000" stroke-width="1.33333" stroke-miterlimit="8" fill="none" fill-rule="evenodd"/><path d="M0 0 22.6388 0.0850394" stroke="#000000" stroke-width="0.666667" stroke-miterlimit="8" fill="none" fill-rule="evenodd" transform="matrix(1 0 0 -1 569.5 439.585)"/><path d="M601.5 439.5 664.024 439.5" stroke="#000000" stroke-width="0.666667" stroke-miterlimit="8" fill="none" fill-rule="evenodd"/><text font-family="Arial,Arial_MSFontService,sans-serif" font-weight="400" font-size="16" transform="translate(575.918 464)">dateRep<tspan x="70.1023" y="0">month</tspan><tspan x="131.409" y="0">year</tspan></text><path d="M453.5 411C453.5 402.992 459.992 396.5 468 396.5L555 396.5C563.008 396.5 569.5 402.992 569.5 411L569.5 469C569.5 477.008 563.008 483.5 555 483.5L468 483.5C459.992 483.5 453.5 477.008 453.5 469Z" stroke="#000000" stroke-linejoin="round" stroke-miterlimit="10" fill="#FFFFFF" fill-rule="evenodd"/><text font-family="Arial,Arial_MSFontService,sans-serif" font-weight="400" font-size="16" transform="translate(466.844 436)">Cases<tspan x="0" y="19">Deaths</tspan></text><path d="M453.5 417.5 569.449 417.5" stroke="#000000" stroke-width="0.666667" stroke-miterlimit="8" fill="#FFFFFF" fill-rule="evenodd"/><text font-family="Arial,Arial_MSFontService,sans-serif" font-weight="700" font-size="16" transform="translate(475.46 414)">COVID<tspan x="50.6667" y="0">-</tspan><tspan x="56" y="0">19</tspan></text><path d="M673.5 439.5 718.097 439.5" stroke="#000000" stroke-width="0.666667" stroke-miterlimit="8" fill="none" fill-rule="evenodd"/></g></svg>