<svg width="476" height="191" xmlns="http://www.w3.org/2000/svg" xmlns:xlink="http://www.w3.org/1999/xlink" overflow="hidden"><defs><clipPath id="clip0"><path d="M254 297 730 297 730 488 254 488Z" fill-rule="evenodd" clip-rule="evenodd"/></clipPath></defs><g clip-path="url(#clip0)" transform="translate(-254 -297)"><path d="M412.5 442.5C412.5 439.739 414.739 437.5 417.5 437.5 420.261 437.5 422.5 439.739 422.5 442.5 422.5 445.261 420.261 447.5 417.5 447.5 414.739 447.5 412.5 445.261 412.5 442.5Z" stroke="#000000" stroke-miterlimit="8" fill="none" fill-rule="evenodd"/><path d="M353.5 442.5C353.5 439.739 355.515 437.5 358 437.5 360.485 437.5 362.5 439.739 362.5 442.5 362.5 445.261 360.485 447.5 358 447.5 355.515 447.5 353.5 445.261 353.5 442.5Z" stroke="#000000" stroke-miterlimit="8" fill="none" fill-rule="evenodd"/><path d="M292.5 442.5C292.5 439.739 294.739 437.5 297.5 437.5 300.261 437.5 302.5 439.739 302.5 442.5 302.5 445.261 300.261 447.5 297.5 447.5 294.739 447.5 292.5 445.261 292.5 442.5Z" stroke="#000000" stroke-miterlimit="8" fill="none" fill-rule="evenodd"/><path d="M453.786 442.6 422.5 442.5" stroke="#000000" stroke-miterlimit="8" fill="none" fill-rule="evenodd"/><path d="M0 0 49.9012 0.000104987" stroke="#000000" stroke-miterlimit="8" fill="none" fill-rule="evenodd" transform="matrix(-1 -8.74228e-08 -8.74228e-08 1 412.401 442.5)"/><path d="M0 0 50.9706 0.000104987" stroke="#000000" stroke-miterlimit="8" fill="none" fill-rule="evenodd" transform="matrix(-1 -8.74228e-08 -8.74228e-08 1 353.471 442.5)"/><text font-family="Arial,Arial_MSFontService,sans-serif" font-weight="400" font-size="16" transform="translate(390.025 463)">product<tspan x="-47.3487" y="0">type</tspan><tspan x="-125.418" y="0">category</tspan></text><path d="M592.5 442.5C592.5 439.739 594.515 437.5 597 437.5 599.485 437.5 601.5 439.739 601.5 442.5 601.5 445.261 599.485 447.5 597 447.5 594.515 447.5 592.5 445.261 592.5 442.5Z" stroke="#000000" stroke-miterlimit="8" fill="none" fill-rule="evenodd"/><path d="M699.5 442.5C699.5 439.739 701.739 437.5 704.5 437.5 707.261 437.5 709.5 439.739 709.5 442.5 709.5 445.261 707.261 447.5 704.5 447.5 701.739 447.5 699.5 445.261 699.5 442.5Z" stroke="#000000" stroke-miterlimit="8" fill="none" fill-rule="evenodd"/><path d="M645.5 442.5C645.5 439.739 647.515 437.5 650 437.5 652.485 437.5 654.5 439.739 654.5 442.5 654.5 445.261 652.485 447.5 650 447.5 647.515 447.5 645.5 445.261 645.5 442.5Z" stroke="#000000" stroke-miterlimit="8" fill="none" fill-rule="evenodd"/><path d="M0 0 22.6388 0.0999475" stroke="#000000" stroke-miterlimit="8" fill="none" fill-rule="evenodd" transform="matrix(1 0 0 -1 569.5 442.6)"/><path d="M528.5 376.5 528.5 399.647" stroke="#000000" stroke-miterlimit="8" fill="none" fill-rule="evenodd"/><text font-family="Arial,Arial_MSFontService,sans-serif" font-weight="400" font-size="16" transform="translate(538.391 378)">customer</text><path d="M601.5 442.5 645.081 442.5" stroke="#000000" stroke-miterlimit="8" fill="none" fill-rule="evenodd"/><path d="M523.5 372C523.5 369.515 525.739 367.5 528.5 367.5 531.261 367.5 533.5 369.515 533.5 372 533.5 374.485 531.261 376.5 528.5 376.5 525.739 376.5 523.5 374.485 523.5 372Z" stroke="#000000" stroke-miterlimit="8" fill="none" fill-rule="evenodd"/><path d="M523.5 342.5C523.5 339.739 525.739 337.5 528.5 337.5 531.261 337.5 533.5 339.739 533.5 342.5 533.5 345.261 531.261 347.5 528.5 347.5 525.739 347.5 523.5 345.261 523.5 342.5Z" stroke="#000000" stroke-miterlimit="8" fill="none" fill-rule="evenodd"/><path d="M0 0 0.000104987 20.0163" stroke="#000000" stroke-miterlimit="8" fill="none" fill-rule="evenodd" transform="matrix(1 0 0 -1 528.5 367.516)"/><path d="M490.5 372C490.5 369.515 492.515 367.5 495 367.5 497.485 367.5 499.5 369.515 499.5 372 499.5 374.485 497.485 376.5 495 376.5 492.515 376.5 490.5 374.485 490.5 372Z" stroke="#000000" stroke-miterlimit="8" fill="none" fill-rule="evenodd"/><path d="M490.5 313C490.5 310.515 492.515 308.5 495 308.5 497.485 308.5 499.5 310.515 499.5 313 499.5 315.485 497.485 317.5 495 317.5 492.515 317.5 490.5 315.485 490.5 313Z" stroke="#000000" stroke-miterlimit="8" fill="none" fill-rule="evenodd"/><path d="M490.5 342.5C490.5 339.739 492.515 337.5 495 337.5 497.485 337.5 499.5 339.739 499.5 342.5 499.5 345.261 497.485 347.5 495 347.5 492.515 347.5 490.5 345.261 490.5 342.5Z" stroke="#000000" stroke-miterlimit="8" fill="none" fill-rule="evenodd"/><path d="M495.5 317.5 495.5 337.415" stroke="#000000" stroke-miterlimit="8" fill="none" fill-rule="evenodd"/><path d="M0 0 0.000104987 20.0163" stroke="#000000" stroke-miterlimit="8" fill="none" fill-rule="evenodd" transform="matrix(1 0 0 -1 495.5 367.516)"/><text font-family="Arial,Arial_MSFontService,sans-serif" font-weight="400" font-size="16" transform="translate(539.459 349)">gender</text><path d="M495.5 376.5 495.5 410.907" stroke="#000000" stroke-miterlimit="8" fill="none" fill-rule="evenodd"/><text font-family="Arial,Arial_MSFontService,sans-serif" font-weight="400" font-size="16" transform="translate(448.513 378)">store<tspan x="11.6124" y="-30">city</tspan><tspan x="-16.9977" y="-59">country</tspan><tspan x="131.589" y="85">date</tspan><tspan x="178.566" y="85">month</tspan><tspan x="239.872" y="85">year</tspan></text><path d="M453.5 412.5C453.5 404.216 460.216 397.5 468.5 397.5L554.5 397.5C562.784 397.5 569.5 404.216 569.5 412.5L569.5 472.5C569.5 480.784 562.784 487.5 554.5 487.5L468.5 487.5C460.216 487.5 453.5 480.784 453.5 472.5Z" stroke="#000000" stroke-linejoin="round" stroke-miterlimit="10" fill="#FFFFFF" fill-rule="evenodd"/><text font-family="Arial,Arial_MSFontService,sans-serif" font-weight="400" font-size="16" transform="translate(466.963 436)">quantity<tspan x="0" y="19">storeSales</tspan><tspan x="0" y="38">storeCost</tspan></text><path d="M453.5 419.5 569.449 419.5" stroke="#000000" stroke-miterlimit="8" fill="#FFFFFF" fill-rule="evenodd"/><text font-family="Arial,Arial_MSFontService,sans-serif" font-weight="700" font-size="16" transform="translate(482.698 415)">SALES</text><path d="M654.5 442.5 699.097 442.5" stroke="#000000" stroke-miterlimit="8" fill="none" fill-rule="evenodd"/></g></svg>